# xmcd CD database file
#
# Track frame offsets:
#	150
#	21580
#	42253
#	60373
#	75411
#	105032
#	129821
#	152544
#	173801
#	191855
#	205833
#	221001
#	253298
#
# Disc length: 4458 seconds
#
# Revision: 0
# Processed by: cddbd v1.5.2PL0 Copyright (c) Steve Scherf et al.
# Submitted via: CDex 1.51
#
DISCID=a611680d
DTITLE=The New Standards - Sunday Morning Coming Down
DYEAR=2012
DGENRE=Jazz
TTITLE0=Sunday Morning Coming Down
TTITLE1=This Must Be the Place
TTITLE2=Call Your Boyfriend
TTITLE3=I Scare Myself
TTITLE4=Essence
TTITLE5=No Cars Go
TTITLE6=After the Gold Rush
TTITLE7=Golden Age
TTITLE8=And I Love Her
TTITLE9=The Book of Love
TTITLE10=One
TTITLE11=You're Innocent When You Dream
TTITLE12=Data Track
EXTD=YEAR: 2012
EXTT0=
EXTT1=
EXTT2=
EXTT3=
EXTT4=
EXTT5=
EXTT6=
EXTT7=
EXTT8=
EXTT9=
EXTT10=
EXTT11=
EXTT12=
PLAYORDER=
